<svg id="svg" version="1.1" xmlns="http://www.w3.org/2000/svg" xmlns:xlink="http://www.w3.org/1999/xlink" width="400" height="400" viewBox="0, 0, 400,400"><g id="svgg"><path id="path0" d="M59.200 12.400 C 59.200 12.629,58.000 12.800,56.400 12.800 C 54.800 12.800,53.600 12.971,53.600 13.200 C 53.600 13.420,52.981 13.600,52.224 13.600 C 51.467 13.600,50.736 13.780,50.600 14.000 C 50.464 14.220,50.003 14.400,49.576 14.400 C 49.149 14.400,48.800 14.580,48.800 14.800 C 48.800 15.020,48.440 15.200,48.000 15.200 C 47.560 15.200,47.200 15.380,47.200 15.600 C 47.200 15.820,46.840 16.000,46.400 16.000 C 45.960 16.000,45.600 16.138,45.600 16.306 C 45.600 16.474,44.880 17.056,44.000 17.600 C 43.120 18.144,42.400 18.722,42.400 18.886 C 42.400 19.049,41.410 20.173,40.200 21.383 C 38.990 22.593,38.000 23.817,38.000 24.103 C 38.000 24.389,37.640 24.883,37.200 25.200 C 36.760 25.517,36.400 26.007,36.400 26.288 C 36.400 26.570,36.220 26.800,36.000 26.800 C 35.780 26.800,35.600 27.160,35.600 27.600 C 35.600 28.040,35.420 28.400,35.200 28.400 C 34.980 28.400,34.800 28.940,34.800 29.600 C 34.800 30.260,34.620 30.800,34.400 30.800 C 34.180 30.800,34.000 31.340,34.000 32.000 C 34.000 32.660,33.820 33.200,33.600 33.200 C 33.338 33.200,33.200 41.267,33.200 56.600 L 33.200 80.000 23.224 80.000 C 17.004 80.000,13.154 80.151,13.000 80.400 C 12.864 80.620,12.439 80.800,12.056 80.800 C 11.181 80.800,9.207 81.699,9.203 82.100 C 9.201 82.265,8.921 82.400,8.581 82.400 C 7.774 82.400,2.000 88.174,2.000 88.981 C 2.000 89.321,1.820 89.600,1.600 89.600 C 1.380 89.600,1.200 89.945,1.200 90.367 C 1.200 90.788,0.975 91.208,0.700 91.300 C -0.021 91.541,-0.021 106.460,0.700 106.700 C 0.975 106.792,1.200 107.122,1.200 107.433 C 1.200 107.745,1.380 108.000,1.600 108.000 C 1.820 108.000,2.000 108.279,2.000 108.619 C 2.000 109.426,7.774 115.200,8.581 115.200 C 8.921 115.200,9.201 115.335,9.203 115.500 C 9.207 115.901,11.181 116.800,12.056 116.800 C 12.439 116.800,12.864 116.980,13.000 117.200 C 13.154 117.449,17.004 117.600,23.224 117.600 L 33.200 117.600 33.200 127.000 L 33.200 136.400 23.624 136.400 C 17.671 136.400,13.954 136.551,13.800 136.800 C 13.664 137.020,13.023 137.200,12.376 137.200 C 11.729 137.200,11.200 137.380,11.200 137.600 C 11.200 137.820,10.874 138.000,10.475 138.000 C 10.077 138.000,9.364 138.360,8.892 138.800 C 8.420 139.240,7.840 139.600,7.603 139.600 C 7.367 139.600,6.575 140.185,5.845 140.900 C 5.114 141.615,4.130 142.465,3.658 142.788 C 3.186 143.112,2.800 143.607,2.800 143.888 C 2.800 144.170,2.620 144.400,2.400 144.400 C 2.180 144.400,2.000 144.670,2.000 145.000 C 2.000 145.330,1.820 145.600,1.600 145.600 C 1.380 145.600,1.200 145.945,1.200 146.367 C 1.200 146.788,0.975 147.208,0.700 147.300 C 0.325 147.425,0.200 149.260,0.200 154.657 C 0.200 162.297,0.590 164.019,2.899 166.575 C 3.285 167.002,3.600 167.505,3.600 167.694 C 3.600 168.139,5.461 170.000,5.906 170.000 C 6.095 170.000,6.598 170.315,7.025 170.701 C 7.451 171.086,8.700 171.825,9.800 172.344 C 10.900 172.863,12.113 173.448,12.495 173.644 C 12.877 173.840,17.692 174.000,23.195 174.000 L 33.200 174.000 33.200 183.178 L 33.200 192.357 24.500 192.541 C 15.644 192.728,12.569 193.003,12.174 193.642 C 12.052 193.839,11.601 194.000,11.171 194.000 C 10.302 194.000,9.050 194.640,7.845 195.700 C 7.407 196.085,6.898 196.400,6.714 196.400 C 6.170 196.400,2.800 199.932,2.800 200.501 C 2.800 200.788,2.440 201.283,2.000 201.600 C 1.560 201.917,1.200 202.482,1.200 202.855 C 1.200 203.228,0.975 203.608,0.700 203.700 C -1.137 204.312,0.568 222.400,2.463 222.400 C 2.648 222.400,2.800 222.585,2.800 222.811 C 2.800 223.301,6.233 226.800,6.714 226.800 C 6.898 226.800,7.398 227.115,7.825 227.500 C 8.251 227.885,9.140 228.446,9.800 228.747 C 10.460 229.047,11.313 229.452,11.695 229.647 C 12.077 229.841,13.022 230.000,13.795 230.000 C 14.568 230.000,15.200 230.180,15.200 230.400 C 15.200 230.655,18.467 230.800,24.200 230.800 L 33.200 230.800 33.200 240.200 L 33.200 249.600 22.800 249.600 C 16.133 249.600,12.400 249.744,12.400 250.000 C 12.400 250.220,11.950 250.400,11.400 250.400 C 10.850 250.400,10.400 250.580,10.400 250.800 C 10.400 251.020,10.040 251.200,9.600 251.200 C 9.160 251.200,8.800 251.380,8.800 251.600 C 8.800 251.820,8.570 252.000,8.288 252.000 C 8.007 252.000,7.517 252.360,7.200 252.800 C 6.883 253.240,6.385 253.600,6.094 253.600 C 5.421 253.600,3.970 255.071,3.232 256.500 C 2.920 257.105,2.515 257.600,2.332 257.600 C 2.150 257.600,2.000 257.870,2.000 258.200 C 2.000 258.530,1.820 258.800,1.600 258.800 C 1.380 258.800,1.200 259.145,1.200 259.567 C 1.200 259.988,0.975 260.408,0.700 260.500 C 0.324 260.626,0.200 262.529,0.200 268.200 C 0.200 273.871,0.324 275.775,0.700 275.900 C 0.975 275.992,1.200 276.412,1.200 276.833 C 1.200 277.255,1.380 277.600,1.600 277.600 C 1.820 277.600,2.000 277.873,2.000 278.207 C 2.000 278.889,6.949 284.000,7.609 284.000 C 7.843 284.000,8.420 284.360,8.892 284.800 C 9.364 285.240,10.077 285.600,10.475 285.600 C 10.874 285.600,11.200 285.780,11.200 286.000 C 11.200 286.220,11.729 286.400,12.376 286.400 C 13.023 286.400,13.664 286.580,13.800 286.800 C 13.954 287.049,17.671 287.200,23.624 287.200 L 33.200 287.200 33.200 310.376 C 33.200 325.396,33.341 333.640,33.600 333.800 C 33.820 333.936,34.000 334.577,34.000 335.224 C 34.000 335.871,34.180 336.400,34.400 336.400 C 34.620 336.400,34.800 336.724,34.800 337.120 C 34.800 338.014,35.694 339.993,36.100 339.997 C 36.265 339.999,36.400 340.320,36.400 340.712 C 36.400 341.103,36.760 341.683,37.200 342.000 C 37.640 342.317,38.000 342.786,38.000 343.042 C 38.000 343.580,42.969 348.800,43.481 348.800 C 43.669 348.800,44.083 349.160,44.400 349.600 C 44.717 350.040,45.297 350.400,45.688 350.400 C 46.080 350.400,46.400 350.547,46.400 350.726 C 46.400 351.192,49.531 352.800,50.438 352.800 C 50.857 352.800,51.200 352.980,51.200 353.200 C 51.200 353.420,51.920 353.600,52.800 353.600 C 53.680 353.600,54.400 353.780,54.400 354.000 C 54.400 354.248,56.600 354.400,60.200 354.400 L 66.000 354.400 66.000 359.976 C 66.000 363.263,66.164 365.654,66.400 365.800 C 66.620 365.936,66.800 366.656,66.800 367.400 C 66.800 368.144,66.980 368.864,67.200 369.000 C 67.420 369.136,67.600 369.597,67.600 370.024 C 67.600 370.451,67.780 370.800,68.000 370.800 C 68.220 370.800,68.400 371.034,68.400 371.320 C 68.400 372.056,69.341 373.993,69.700 373.997 C 69.865 373.999,70.000 374.270,70.000 374.600 C 70.000 374.930,70.150 375.200,70.332 375.200 C 70.515 375.200,70.920 375.692,71.232 376.293 C 71.783 377.352,76.557 382.400,77.009 382.400 C 77.133 382.400,77.620 382.760,78.092 383.200 C 78.564 383.640,79.187 384.000,79.475 384.000 C 79.764 384.000,80.000 384.180,80.000 384.400 C 80.000 384.620,80.360 384.800,80.800 384.800 C 81.240 384.800,81.600 384.980,81.600 385.200 C 81.600 385.420,82.140 385.600,82.800 385.600 C 83.460 385.600,84.000 385.780,84.000 386.000 C 84.000 386.220,84.540 386.400,85.200 386.400 C 85.860 386.400,86.400 386.580,86.400 386.800 C 86.400 387.027,87.573 387.200,89.120 387.200 C 90.616 387.200,92.021 387.381,92.241 387.601 C 93.205 388.565,310.400 387.736,310.400 386.768 C 310.400 386.566,310.940 386.400,311.600 386.400 C 312.260 386.400,312.800 386.220,312.800 386.000 C 312.800 385.780,313.143 385.600,313.562 385.600 C 314.469 385.600,317.600 383.992,317.600 383.526 C 317.600 383.347,317.920 383.200,318.312 383.200 C 318.703 383.200,319.283 382.840,319.600 382.400 C 319.917 381.960,320.382 381.600,320.634 381.600 C 321.179 381.600,324.800 377.807,324.800 377.235 C 324.800 377.016,325.216 376.420,325.725 375.911 C 326.234 375.402,326.908 374.404,327.223 373.693 C 327.538 372.982,327.931 372.400,328.098 372.400 C 328.264 372.400,328.400 372.051,328.400 371.624 C 328.400 371.197,328.580 370.736,328.800 370.600 C 329.020 370.464,329.200 369.913,329.200 369.376 C 329.200 368.839,329.380 368.400,329.600 368.400 C 329.820 368.400,330.000 367.500,330.000 366.400 C 330.000 365.300,330.180 364.400,330.400 364.400 C 330.665 364.400,330.800 336.075,330.800 280.225 L 330.800 196.051 363.500 163.325 C 381.485 145.326,396.455 130.105,396.768 129.500 C 397.080 128.895,397.485 128.400,397.668 128.400 C 397.850 128.400,398.000 128.040,398.000 127.600 C 398.000 127.160,398.180 126.800,398.400 126.800 C 398.620 126.800,398.800 126.455,398.800 126.033 C 398.800 125.612,399.025 125.192,399.300 125.100 C 400.022 124.859,400.022 109.540,399.300 109.300 C 399.025 109.208,398.800 108.828,398.800 108.455 C 398.800 108.082,398.440 107.517,398.000 107.200 C 397.560 106.883,397.200 106.390,397.200 106.105 C 397.200 105.820,395.895 104.257,394.300 102.632 C 392.705 101.007,389.943 98.175,388.163 96.339 C 383.963 92.007,380.371 88.800,379.718 88.800 C 379.433 88.800,379.200 88.620,379.200 88.400 C 379.200 88.180,378.840 88.000,378.400 88.000 C 377.960 88.000,377.600 87.820,377.600 87.600 C 377.600 87.380,377.240 87.200,376.800 87.200 C 376.360 87.200,376.000 87.020,376.000 86.800 C 376.000 86.580,375.381 86.400,374.624 86.400 C 373.867 86.400,373.136 86.220,373.000 86.000 C 372.676 85.476,364.924 85.476,364.600 86.000 C 364.464 86.220,363.823 86.400,363.176 86.400 C 362.529 86.400,362.000 86.580,362.000 86.800 C 362.000 87.020,361.550 87.200,361.000 87.200 C 360.450 87.200,360.000 87.380,360.000 87.600 C 360.000 87.820,359.680 88.000,359.288 88.000 C 358.897 88.000,358.317 88.360,358.000 88.800 C 357.683 89.240,357.201 89.600,356.928 89.600 C 356.365 89.600,351.019 94.577,346.230 99.560 C 339.675 106.380,330.630 115.200,330.192 115.200 C 329.796 115.200,330.002 94.446,330.400 94.200 C 330.653 94.044,330.800 89.263,330.800 81.176 C 330.800 72.925,330.658 68.400,330.400 68.400 C 330.180 68.400,330.000 67.678,330.000 66.795 C 330.000 65.912,329.820 64.832,329.600 64.395 C 329.380 63.958,329.020 63.242,328.800 62.805 C 328.580 62.368,328.400 61.738,328.400 61.405 C 328.400 61.072,328.220 60.800,328.000 60.800 C 327.780 60.800,327.600 60.564,327.600 60.275 C 327.600 59.987,327.240 59.364,326.800 58.892 C 326.360 58.420,326.000 57.847,326.000 57.620 C 326.000 56.759,321.129 51.673,319.500 50.832 C 318.895 50.520,318.400 50.115,318.400 49.932 C 318.400 49.750,318.040 49.600,317.600 49.600 C 317.160 49.600,316.800 49.420,316.800 49.200 C 316.800 48.980,316.440 48.800,316.000 48.800 C 315.560 48.800,315.200 48.620,315.200 48.400 C 315.200 48.180,314.840 48.000,314.400 48.000 C 313.960 48.000,313.600 47.820,313.600 47.600 C 313.600 47.380,313.161 47.200,312.624 47.200 C 312.087 47.200,311.536 47.020,311.400 46.800 C 311.264 46.580,310.634 46.400,310.000 46.400 C 309.366 46.400,308.736 46.220,308.600 46.000 C 308.464 45.780,306.754 45.600,304.800 45.600 C 302.846 45.600,301.136 45.420,301.000 45.200 C 300.864 44.980,300.133 44.800,299.376 44.800 L 298.000 44.800 298.000 41.224 C 298.000 39.257,297.820 37.536,297.600 37.400 C 297.380 37.264,297.200 36.083,297.200 34.776 C 297.200 33.459,297.022 32.400,296.800 32.400 C 296.580 32.400,296.400 31.860,296.400 31.200 C 296.400 30.540,296.220 30.000,296.000 30.000 C 295.780 30.000,295.600 29.735,295.600 29.412 C 295.600 28.881,295.203 28.067,293.538 25.177 C 293.242 24.664,292.640 23.846,292.200 23.359 C 290.942 21.968,290.000 20.666,290.000 20.319 C 290.000 20.143,289.806 20.000,289.569 20.000 C 289.331 20.000,288.446 19.280,287.600 18.400 C 286.754 17.520,285.856 16.800,285.603 16.800 C 285.350 16.800,284.864 16.521,284.523 16.180 C 284.182 15.840,283.385 15.457,282.752 15.330 C 282.118 15.204,281.600 14.943,281.600 14.750 C 281.600 14.557,281.240 14.400,280.800 14.400 C 280.360 14.400,280.000 14.220,280.000 14.000 C 280.000 13.780,279.471 13.600,278.824 13.600 C 278.177 13.600,277.536 13.420,277.400 13.200 C 277.264 12.980,275.914 12.800,274.400 12.800 C 272.886 12.800,271.536 12.620,271.400 12.400 C 271.057 11.845,59.200 11.845,59.200 12.400 M275.939 27.995 C 278.958 29.722,280.714 31.527,282.083 34.308 L 283.400 36.983 283.506 100.575 L 283.612 164.168 249.647 198.184 L 215.683 232.200 214.814 236.000 C 214.336 238.090,213.319 242.410,212.555 245.600 C 211.791 248.790,210.805 252.930,210.364 254.800 C 209.923 256.670,209.402 258.830,209.206 259.600 C 209.011 260.370,208.648 261.900,208.400 263.000 C 207.774 265.780,207.216 267.970,206.743 269.512 C 205.687 272.947,206.311 276.909,208.163 278.535 C 210.615 280.689,212.301 280.733,219.800 278.840 C 220.680 278.618,221.940 278.329,222.600 278.199 C 223.260 278.069,224.475 277.791,225.300 277.581 C 226.696 277.226,227.588 277.003,231.500 276.025 C 232.325 275.819,233.900 275.448,235.000 275.200 C 236.100 274.952,237.630 274.592,238.400 274.400 C 239.170 274.208,240.700 273.848,241.800 273.600 C 242.900 273.352,244.430 272.988,245.200 272.790 C 245.970 272.592,248.310 272.028,250.400 271.538 L 254.200 270.646 268.423 256.523 C 276.246 248.755,282.861 242.400,283.123 242.400 C 283.881 242.400,283.795 327.433,283.034 330.290 C 281.964 334.309,279.447 337.258,275.504 339.110 L 273.609 340.000 165.416 340.000 L 57.224 340.000 55.080 339.020 C 52.392 337.790,49.955 335.450,48.514 332.714 L 47.400 330.600 47.277 309.218 C 47.210 297.457,47.258 287.422,47.385 286.918 L 47.615 286.000 56.324 286.000 C 65.849 286.000,68.103 285.662,71.743 283.687 C 73.633 282.662,77.600 279.063,77.600 278.374 C 77.600 278.200,77.825 277.819,78.100 277.529 C 82.497 272.880,81.186 261.224,75.642 255.681 C 71.054 251.092,66.964 250.000,54.364 250.000 L 47.186 250.000 47.293 239.900 L 47.400 229.800 57.000 229.573 C 67.330 229.329,67.394 229.319,71.019 227.571 C 78.400 224.012,82.840 213.611,80.058 206.400 C 76.285 196.622,71.455 194.004,57.173 193.994 C 52.238 193.991,47.972 193.843,47.693 193.666 C 47.301 193.417,47.210 191.083,47.293 183.372 L 47.400 173.400 56.800 173.168 C 66.450 172.929,67.573 172.775,70.986 171.211 C 78.120 167.944,82.779 157.051,80.058 150.000 C 77.649 143.757,74.656 140.821,67.881 138.057 C 67.153 137.759,63.502 137.600,57.430 137.600 C 50.002 137.600,48.005 137.488,47.642 137.050 C 47.321 136.664,47.217 133.607,47.293 126.750 L 47.400 117.000 57.200 116.766 C 63.848 116.608,67.386 116.366,68.200 116.016 C 71.946 114.402,73.231 113.580,75.406 111.406 C 76.729 110.083,78.236 108.100,78.756 107.000 C 79.276 105.900,79.902 104.572,80.146 104.048 C 80.781 102.688,80.720 95.310,80.059 93.600 C 76.243 83.728,71.604 81.203,56.600 80.829 L 47.400 80.600 47.400 58.600 L 47.400 36.600 48.527 34.400 C 50.475 30.596,54.099 27.671,57.600 27.075 C 58.150 26.981,107.110 26.926,166.400 26.952 L 274.200 27.000 275.939 27.995 M104.842 60.431 C 100.294 63.204,100.227 68.971,104.709 71.908 C 105.836 72.647,239.886 73.024,242.486 72.296 C 247.456 70.904,248.059 63.309,243.415 60.588 L 241.730 59.600 173.965 59.601 L 106.200 59.603 104.842 60.431 M305.400 60.480 C 310.738 61.624,314.850 65.583,315.931 70.619 C 316.124 71.519,316.139 78.177,315.963 85.619 C 315.790 92.978,315.638 106.364,315.624 115.364 L 315.600 131.728 306.535 140.848 C 301.550 145.863,297.320 149.874,297.135 149.760 C 296.765 149.531,296.661 61.227,297.030 60.266 C 297.291 59.585,301.755 59.699,305.400 60.480 M64.796 94.998 C 67.591 96.443,68.074 99.606,65.840 101.840 L 64.480 103.200 40.814 103.200 C 24.171 103.200,16.888 103.067,16.274 102.753 C 13.496 101.333,13.087 97.611,15.491 95.629 L 16.982 94.400 40.311 94.400 C 60.226 94.400,63.809 94.487,64.796 94.998 M370.851 100.568 C 371.616 100.890,375.189 104.159,379.100 108.115 L 386.000 115.094 386.000 117.387 L 386.000 119.681 380.731 125.040 C 377.833 127.988,375.266 130.400,375.028 130.400 C 374.789 130.400,370.320 126.123,365.096 120.896 L 355.597 111.391 360.774 106.226 C 367.049 99.965,368.064 99.395,370.851 100.568 M105.000 107.224 C 100.717 109.322,100.203 115.693,104.094 118.468 L 105.400 119.400 174.000 119.400 L 242.600 119.400 243.804 118.541 C 248.122 115.461,247.371 109.036,242.451 106.967 C 239.986 105.931,107.133 106.179,105.000 107.224 M364.800 140.596 C 364.800 140.818,339.196 166.604,307.902 197.898 L 251.004 254.797 241.502 245.302 C 236.276 240.079,232.000 235.625,232.000 235.404 C 232.000 235.182,257.604 209.396,288.898 178.102 L 345.796 121.203 355.298 130.698 C 360.524 135.921,364.800 140.375,364.800 140.596 M64.760 151.380 C 67.866 152.986,68.102 156.926,65.211 158.918 C 63.987 159.762,17.897 159.983,16.274 159.153 C 12.977 157.467,13.155 153.172,16.600 151.267 C 17.938 150.527,63.317 150.633,64.760 151.380 M106.019 153.722 C 100.529 155.472,99.839 163.121,104.921 165.900 C 106.125 166.559,110.211 166.600,174.263 166.600 L 242.326 166.600 243.863 165.364 C 248.437 161.687,247.254 155.341,241.682 153.672 C 239.509 153.021,108.066 153.069,106.019 153.722 M105.817 200.692 C 100.627 202.010,99.930 209.576,104.709 212.708 C 105.973 213.536,203.799 214.008,206.798 213.200 C 213.014 211.527,212.981 201.896,206.756 200.651 C 205.287 200.357,106.977 200.397,105.817 200.692 M64.531 207.745 C 68.188 209.273,67.983 214.902,64.237 215.822 C 63.777 215.935,52.718 215.976,39.662 215.914 L 15.924 215.800 14.964 214.600 C 12.999 212.144,13.879 208.814,16.800 207.649 C 18.476 206.981,62.916 207.071,64.531 207.745 M316.400 285.246 C 316.400 337.913,316.270 361.008,315.966 362.323 C 314.998 366.506,312.514 369.783,308.916 371.621 L 307.000 372.600 198.400 372.600 L 89.800 372.600 87.797 371.542 C 82.670 368.836,80.414 364.550,80.405 357.500 L 80.400 354.000 175.423 354.000 C 271.133 354.000,273.314 353.970,278.084 352.595 C 284.695 350.690,290.850 345.470,293.979 339.113 C 296.989 332.999,296.800 336.969,296.800 279.884 L 296.800 228.606 306.274 219.125 C 311.485 213.911,315.895 209.735,316.074 209.846 C 316.254 209.957,316.400 243.887,316.400 285.246 M105.354 247.965 C 99.424 250.658,100.343 258.834,106.741 260.311 C 109.643 260.981,182.141 261.017,185.280 260.350 C 192.387 258.840,193.202 249.914,186.440 247.654 C 183.766 246.760,107.362 247.053,105.354 247.965 M236.990 260.746 C 236.775 260.947,233.900 261.745,230.600 262.520 C 222.343 264.459,222.000 264.521,222.000 264.072 C 222.000 262.883,225.342 249.759,225.702 249.537 C 226.299 249.168,237.489 260.278,236.990 260.746 M66.040 265.242 C 68.401 267.770,67.185 271.411,63.651 272.393 C 61.554 272.975,19.698 272.937,17.369 272.350 C 13.974 271.496,12.770 267.568,15.169 265.169 L 16.338 264.000 40.609 264.000 L 64.879 264.000 66.040 265.242 M106.471 294.467 C 100.302 295.865,99.635 304.329,105.495 306.841 C 108.156 307.981,174.113 307.846,176.400 306.696 C 181.064 304.349,180.847 297.038,176.047 294.858 C 174.335 294.080,109.777 293.717,106.471 294.467 " stroke="none" fill="#060607" fill-rule="evenodd"></path><path id="path1" d="M57.600 27.075 C 54.099 27.671,50.475 30.596,48.527 34.400 L 47.400 36.600 47.400 58.600 L 47.400 80.600 56.600 80.829 C 71.604 81.203,76.243 83.728,80.059 93.600 C 80.720 95.310,80.781 102.688,80.146 104.048 C 79.902 104.572,79.276 105.900,78.756 107.000 C 78.236 108.100,76.729 110.083,75.406 111.406 C 73.231 113.580,71.946 114.402,68.200 116.016 C 67.386 116.366,63.848 116.608,57.200 116.766 L 47.400 117.000 47.293 126.750 C 47.217 133.607,47.321 136.664,47.642 137.050 C 48.005 137.488,50.002 137.600,57.430 137.600 C 63.502 137.600,67.153 137.759,67.881 138.057 C 74.656 140.821,77.649 143.757,80.058 150.000 C 82.779 157.051,78.120 167.944,70.986 171.211 C 67.573 172.775,66.450 172.929,56.800 173.168 L 47.400 173.400 47.293 183.372 C 47.210 191.083,47.301 193.417,47.693 193.666 C 47.972 193.843,52.238 193.991,57.173 193.994 C 71.455 194.004,76.285 196.622,80.058 206.400 C 82.840 213.611,78.400 224.012,71.019 227.571 C 67.394 229.319,67.330 229.329,57.000 229.573 L 47.400 229.800 47.293 239.900 L 47.186 250.000 52.293 249.914 L 57.400 249.828 52.700 249.701 L 48.000 249.575 48.000 240.032 L 48.000 230.489 57.100 230.203 C 64.558 229.969,66.630 229.774,68.585 229.126 C 85.725 223.438,85.324 199.415,68.000 194.093 C 67.230 193.856,62.415 193.538,57.300 193.385 L 48.000 193.106 48.000 183.353 L 48.000 173.600 56.934 173.600 C 67.120 173.600,69.046 173.221,73.200 170.400 C 85.074 162.337,83.506 144.481,70.400 138.521 C 67.518 137.210,66.289 137.058,57.300 136.894 L 48.000 136.725 48.000 126.963 L 48.000 117.200 56.700 117.195 C 68.321 117.189,71.211 116.361,75.904 111.694 C 86.022 101.631,81.202 84.722,67.148 80.981 C 65.610 80.572,62.585 80.408,56.490 80.405 L 47.980 80.400 48.090 58.300 L 48.200 36.200 49.134 34.400 C 50.455 31.854,52.642 29.717,55.200 28.471 L 57.400 27.400 165.400 27.400 L 273.400 27.400 275.686 28.522 C 278.111 29.713,280.630 32.238,281.859 34.710 C 282.570 36.139,282.604 38.820,282.704 100.191 L 282.807 164.182 249.264 197.791 C 227.897 219.200,215.571 231.836,215.307 232.600 C 214.811 234.038,214.212 236.281,213.600 239.000 C 213.352 240.100,212.966 241.720,212.742 242.600 C 212.116 245.055,211.693 246.811,211.200 249.000 C 210.952 250.100,210.581 251.675,210.375 252.500 C 210.169 253.325,209.831 254.675,209.625 255.500 C 209.419 256.325,209.048 257.900,208.800 259.000 C 208.552 260.100,208.189 261.630,207.994 262.400 C 206.180 269.537,205.830 271.346,205.816 273.662 C 205.776 280.196,209.754 281.833,219.800 279.415 C 222.220 278.833,226.450 277.819,229.200 277.162 C 231.950 276.505,234.830 275.806,235.600 275.609 C 236.370 275.412,237.900 275.048,239.000 274.800 C 240.100 274.552,241.630 274.189,242.400 273.994 C 243.170 273.798,245.420 273.257,247.400 272.792 C 255.117 270.980,253.121 272.460,268.595 257.077 L 282.600 243.155 282.702 286.562 L 282.804 329.969 281.866 332.088 C 280.589 334.976,277.742 337.740,274.980 338.773 L 272.770 339.600 165.404 339.600 C 85.928 339.600,57.747 339.481,56.919 339.144 C 53.735 337.846,52.943 337.370,51.483 335.880 C 50.609 334.989,49.468 333.296,48.947 332.118 L 48.000 329.977 48.000 308.389 L 48.000 286.800 55.500 286.800 C 68.683 286.799,74.086 284.722,78.400 278.000 C 85.720 266.593,77.275 249.735,64.400 250.053 L 62.600 250.098 64.903 250.435 C 74.432 251.830,80.514 258.648,80.572 268.000 C 80.597 271.995,80.385 273.117,79.060 276.000 C 78.807 276.550,78.375 277.238,78.100 277.529 C 77.825 277.819,77.600 278.200,77.600 278.374 C 77.600 279.063,73.633 282.662,71.743 283.687 C 68.103 285.662,65.849 286.000,56.324 286.000 L 47.615 286.000 47.385 286.918 C 47.258 287.422,47.210 297.457,47.277 309.218 L 47.400 330.600 48.514 332.714 C 49.955 335.450,52.392 337.790,55.080 339.020 L 57.224 340.000 165.416 340.000 L 273.609 340.000 275.504 339.110 C 279.447 337.258,281.964 334.309,283.034 330.290 C 283.795 327.433,283.881 242.400,283.123 242.400 C 282.861 242.400,276.246 248.755,268.423 256.523 L 254.200 270.646 250.400 271.538 C 248.310 272.028,245.970 272.592,245.200 272.790 C 244.430 272.988,242.900 273.352,241.800 273.600 C 240.700 273.848,239.170 274.208,238.400 274.400 C 237.630 274.592,236.100 274.952,235.000 275.200 C 233.900 275.448,232.325 275.819,231.500 276.025 C 227.588 277.003,226.696 277.226,225.300 277.581 C 224.475 277.791,223.260 278.069,222.600 278.199 C 221.940 278.329,220.680 278.618,219.800 278.840 C 212.301 280.733,210.615 280.689,208.163 278.535 C 206.311 276.909,205.687 272.947,206.743 269.512 C 207.216 267.970,207.774 265.780,208.400 263.000 C 208.648 261.900,209.011 260.370,209.206 259.600 C 209.402 258.830,209.923 256.670,210.364 254.800 C 210.805 252.930,211.791 248.790,212.555 245.600 C 213.319 242.410,214.336 238.090,214.814 236.000 L 215.683 232.200 249.647 198.184 L 283.612 164.168 283.506 100.575 L 283.400 36.983 282.083 34.308 C 280.714 31.527,278.958 29.722,275.939 27.995 L 274.200 27.000 166.400 26.952 C 107.110 26.926,58.150 26.981,57.600 27.075 M104.600 59.948 C 98.635 63.653,99.984 71.474,106.877 73.145 C 109.512 73.784,237.835 73.794,240.880 73.156 C 247.743 71.717,249.449 63.335,243.552 60.021 C 241.360 58.789,106.581 58.718,104.600 59.948 M243.415 60.588 C 248.059 63.309,247.456 70.904,242.486 72.296 C 239.886 73.024,105.836 72.647,104.709 71.908 C 100.227 68.971,100.294 63.204,104.842 60.431 L 106.200 59.603 173.965 59.601 L 241.730 59.600 243.415 60.588 M297.030 60.266 C 296.661 61.227,296.765 149.531,297.135 149.760 C 297.320 149.874,301.550 145.863,306.535 140.848 L 315.600 131.728 315.624 115.364 C 315.638 106.364,315.790 92.978,315.963 85.619 C 316.384 67.757,315.581 65.022,308.940 61.683 C 305.802 60.105,297.472 59.114,297.030 60.266 M105.136 106.538 C 99.094 109.223,99.574 117.662,105.894 119.863 C 108.041 120.611,239.877 120.641,242.011 119.894 C 248.315 117.688,248.982 109.751,243.116 106.757 C 241.279 105.820,107.231 105.607,105.136 106.538 M242.451 106.967 C 247.371 109.036,248.122 115.461,243.804 118.541 L 242.600 119.400 174.000 119.400 L 105.400 119.400 104.094 118.468 C 100.203 115.693,100.717 109.322,105.000 107.224 C 107.133 106.179,239.986 105.931,242.451 106.967 M105.800 153.286 C 100.113 155.314,99.094 162.601,104.039 165.874 L 105.741 167.000 173.500 167.103 C 210.767 167.160,241.503 167.070,241.801 166.903 C 242.099 166.737,211.711 166.600,174.272 166.600 C 110.211 166.600,106.125 166.559,104.921 165.900 C 100.175 163.305,100.265 156.547,105.077 154.156 C 106.962 153.220,238.162 152.725,241.509 153.641 C 247.060 155.161,248.506 161.546,244.119 165.162 C 242.447 166.541,242.648 166.848,244.404 165.597 C 248.169 162.916,247.888 156.725,243.881 154.074 L 242.259 153.000 174.629 152.929 C 127.454 152.880,106.637 152.988,105.800 153.286 M104.600 200.748 C 100.052 203.573,99.486 208.910,103.373 212.322 C 105.408 214.109,103.060 214.040,157.429 213.915 L 207.459 213.800 208.908 212.807 C 213.192 209.871,212.963 203.412,208.485 200.896 L 206.891 200.000 156.346 200.001 C 107.734 200.003,105.754 200.032,104.600 200.748 M206.756 200.651 C 212.981 201.896,213.014 211.527,206.798 213.200 C 203.799 214.008,105.973 213.536,104.709 212.708 C 99.930 209.576,100.627 202.010,105.817 200.692 C 106.977 200.397,205.287 200.357,206.756 200.651 M306.274 219.125 L 296.800 228.606 296.800 279.884 C 296.800 336.969,296.989 332.999,293.979 339.113 C 290.850 345.470,284.695 350.690,278.084 352.595 C 273.314 353.970,271.133 354.000,175.423 354.000 L 80.400 354.000 80.405 357.500 C 80.414 364.550,82.670 368.836,87.797 371.542 L 89.800 372.600 198.400 372.600 L 307.000 372.600 308.916 371.621 C 312.514 369.783,314.998 366.506,315.966 362.323 C 316.486 360.076,316.592 210.166,316.074 209.846 C 315.895 209.735,311.485 213.911,306.274 219.125 M105.136 247.338 C 99.124 250.010,99.652 258.851,105.936 260.734 C 108.113 261.386,184.237 261.401,186.411 260.750 C 192.867 258.815,193.309 249.922,187.081 247.275 C 185.478 246.594,106.675 246.654,105.136 247.338 M186.440 247.654 C 193.202 249.914,192.387 258.840,185.280 260.350 C 182.141 261.017,109.643 260.981,106.741 260.311 C 100.343 258.834,99.424 250.658,105.354 247.965 C 107.362 247.053,183.766 246.760,186.440 247.654 M227.396 251.196 C 228.026 251.854,228.619 252.314,228.713 252.220 C 228.922 252.012,226.956 250.000,226.543 250.000 C 226.382 250.000,226.766 250.538,227.396 251.196 M224.854 251.467 C 224.825 251.944,224.696 252.664,224.570 253.067 C 224.352 253.761,224.364 253.762,224.796 253.088 C 225.047 252.697,225.175 251.977,225.081 251.488 C 224.909 250.601,224.909 250.601,224.854 251.467 M232.800 256.200 C 234.881 258.290,236.674 260.000,236.784 260.000 C 236.894 260.000,235.281 258.290,233.200 256.200 C 231.119 254.110,229.326 252.400,229.216 252.400 C 229.106 252.400,230.719 254.110,232.800 256.200 M223.850 255.650 C 223.709 256.353,223.669 257.002,223.759 257.092 C 223.850 257.183,224.048 256.691,224.200 256.000 C 224.352 255.309,224.393 254.659,224.291 254.558 C 224.189 254.456,223.991 254.947,223.850 255.650 M222.250 262.450 C 221.889 264.254,221.924 264.403,222.700 264.368 C 223.136 264.349,223.208 264.259,222.889 264.131 C 222.539 263.991,222.458 263.495,222.633 262.563 C 222.774 261.813,222.802 261.200,222.695 261.200 C 222.588 261.200,222.388 261.762,222.250 262.450 M228.200 262.800 C 227.181 263.238,228.232 263.238,229.600 262.800 C 230.404 262.543,230.443 262.477,229.800 262.468 C 229.360 262.462,228.640 262.611,228.200 262.800 M224.600 263.600 C 223.581 264.038,224.632 264.038,226.000 263.600 C 226.804 263.343,226.843 263.277,226.200 263.268 C 225.760 263.262,225.040 263.411,224.600 263.600 M29.528 272.700 C 35.759 272.762,45.839 272.762,51.928 272.700 C 58.018 272.638,52.920 272.587,40.600 272.587 C 28.280 272.587,23.298 272.638,29.528 272.700 M104.866 294.481 C 99.480 297.091,99.506 304.154,104.912 307.159 C 107.227 308.446,173.876 308.487,176.393 307.204 C 182.032 304.327,181.595 296.647,175.651 294.164 C 173.093 293.095,107.115 293.390,104.866 294.481 M176.047 294.858 C 180.847 297.038,181.064 304.349,176.400 306.696 C 174.113 307.846,108.156 307.981,105.495 306.841 C 102.444 305.533,101.356 303.457,101.542 299.300 C 101.623 297.478,104.160 294.990,106.471 294.467 C 109.777 293.717,174.335 294.080,176.047 294.858 " stroke="none" fill="#437393" fill-rule="evenodd"></path><path id="path2" d="M16.126 95.180 C 13.472 96.798,13.140 99.962,15.414 101.959 L 16.828 103.200 40.585 103.200 L 64.343 103.200 65.772 101.853 C 68.050 99.704,67.568 96.432,64.760 94.980 C 62.771 93.951,17.838 94.136,16.126 95.180 M288.699 178.301 C 257.515 209.486,232.000 235.182,232.000 235.404 C 232.000 235.926,250.481 254.400,251.004 254.400 C 251.532 254.400,364.800 141.117,364.800 140.588 C 364.800 140.071,346.298 121.600,345.780 121.600 C 345.570 121.600,319.884 147.115,288.699 178.301 M16.126 151.580 C 12.908 153.542,13.444 158.558,16.963 159.422 C 17.423 159.535,28.390 159.576,41.333 159.514 L 64.866 159.400 66.033 158.094 C 67.997 155.895,67.400 152.744,64.760 151.380 C 62.771 150.351,17.838 150.536,16.126 151.580 M16.925 207.641 C 13.439 208.650,12.887 213.180,15.989 215.318 C 17.427 216.310,62.904 216.368,64.984 215.381 C 68.347 213.785,67.750 208.635,64.083 207.616 C 62.207 207.095,18.732 207.118,16.925 207.641 M225.623 250.137 C 225.391 250.369,225.200 250.916,225.200 251.352 C 225.200 251.787,225.026 252.696,224.813 253.372 C 224.404 254.670,223.012 260.505,222.588 262.700 C 222.310 264.137,222.601 264.271,224.640 263.643 C 225.278 263.447,226.880 263.061,228.200 262.787 C 231.636 262.071,236.552 260.783,236.794 260.534 C 236.907 260.417,234.536 257.935,231.523 255.018 C 227.670 251.285,225.921 249.839,225.623 250.137 M15.169 265.169 C 13.154 267.185,13.717 270.646,16.274 271.953 C 17.897 272.783,63.987 272.562,65.211 271.718 C 67.662 270.029,67.987 267.249,65.969 265.231 L 64.738 264.000 40.538 264.000 L 16.338 264.000 15.169 265.169 " stroke="none" fill="#f6a734" fill-rule="evenodd"></path><path id="path3" d="M58.800 27.575 C 54.592 28.076,51.158 30.501,49.134 34.400 L 48.200 36.200 48.090 58.300 L 47.980 80.400 56.490 80.405 C 62.585 80.408,65.610 80.572,67.148 80.981 C 81.202 84.722,86.022 101.631,75.904 111.694 C 71.211 116.361,68.321 117.189,56.700 117.195 L 48.000 117.200 48.000 126.963 L 48.000 136.725 57.300 136.894 C 66.289 137.058,67.518 137.210,70.400 138.521 C 83.506 144.481,85.074 162.337,73.200 170.400 C 69.046 173.221,67.120 173.600,56.934 173.600 L 48.000 173.600 48.000 183.353 L 48.000 193.106 57.300 193.385 C 62.415 193.538,67.230 193.856,68.000 194.093 C 85.324 199.415,85.725 223.438,68.585 229.126 C 66.630 229.774,64.558 229.969,57.100 230.203 L 48.000 230.489 48.000 239.996 L 48.000 249.502 57.100 249.783 C 62.811 249.959,66.913 250.269,68.114 250.614 C 81.781 254.548,85.763 272.227,75.135 281.783 C 70.715 285.757,66.636 286.799,55.500 286.800 L 48.000 286.800 48.000 308.389 L 48.000 329.977 48.947 332.118 C 49.468 333.296,50.609 334.989,51.483 335.880 C 52.943 337.370,53.735 337.846,56.919 339.144 C 57.747 339.481,85.928 339.600,165.404 339.600 L 272.770 339.600 274.980 338.773 C 277.742 337.740,280.589 334.976,281.866 332.088 L 282.804 329.969 282.702 286.562 L 282.600 243.155 268.595 257.077 C 253.121 272.460,255.117 270.980,247.400 272.792 C 245.420 273.257,243.170 273.798,242.400 273.994 C 241.630 274.189,240.100 274.552,239.000 274.800 C 237.900 275.048,236.370 275.412,235.600 275.609 C 234.830 275.806,231.950 276.505,229.200 277.162 C 226.450 277.819,222.220 278.833,219.800 279.415 C 209.754 281.833,205.776 280.196,205.816 273.662 C 205.830 271.346,206.180 269.537,207.994 262.400 C 208.189 261.630,208.552 260.100,208.800 259.000 C 209.048 257.900,209.419 256.325,209.625 255.500 C 209.831 254.675,210.169 253.325,210.375 252.500 C 210.581 251.675,210.952 250.100,211.200 249.000 C 211.448 247.900,211.819 246.325,212.025 245.500 C 212.231 244.675,212.569 243.325,212.775 242.500 C 212.981 241.675,213.352 240.100,213.600 239.000 C 214.212 236.281,214.811 234.038,215.307 232.600 C 215.571 231.836,227.897 219.200,249.264 197.791 L 282.807 164.182 282.704 100.191 C 282.604 38.820,282.570 36.139,281.859 34.710 C 280.630 32.238,278.111 29.713,275.686 28.522 L 273.400 27.400 167.200 27.357 C 108.790 27.333,60.010 27.431,58.800 27.575 M243.552 60.021 C 249.449 63.335,247.743 71.717,240.880 73.156 C 237.835 73.794,109.512 73.784,106.877 73.145 C 99.984 71.474,98.635 63.653,104.600 59.948 C 106.581 58.718,241.360 58.789,243.552 60.021 M243.116 106.757 C 248.982 109.751,248.315 117.688,242.011 119.894 C 239.877 120.641,108.041 120.611,105.894 119.863 C 99.574 117.662,99.094 109.223,105.136 106.538 C 107.231 105.607,241.279 105.820,243.116 106.757 M243.881 154.074 C 248.515 157.140,248.041 163.989,243.031 166.343 L 241.194 167.207 173.468 167.103 L 105.741 167.000 104.039 165.874 C 99.094 162.601,100.113 155.314,105.800 153.286 C 106.637 152.988,127.454 152.880,174.629 152.929 L 242.259 153.000 243.881 154.074 M208.485 200.896 C 212.963 203.412,213.192 209.871,208.908 212.807 L 207.459 213.800 157.429 213.915 C 129.913 213.978,106.811 213.924,106.091 213.795 C 101.322 212.940,99.175 206.105,102.527 202.447 C 104.958 199.794,100.346 200.003,156.346 200.001 L 206.891 200.000 208.485 200.896 M187.081 247.275 C 193.309 249.922,192.867 258.815,186.411 260.750 C 184.237 261.401,108.113 261.386,105.936 260.734 C 99.652 258.851,99.124 250.010,105.136 247.338 C 106.675 246.654,185.478 246.594,187.081 247.275 M175.651 294.164 C 181.595 296.647,182.032 304.327,176.393 307.204 C 173.876 308.487,107.227 308.446,104.912 307.159 C 99.506 304.154,99.480 297.091,104.866 294.481 C 107.115 293.390,173.093 293.095,175.651 294.164 " stroke="none" fill="#ebf3fb" fill-rule="evenodd"></path><path id="path4" d="M366.800 100.676 C 366.470 100.794,363.814 103.252,360.899 106.140 L 355.598 111.391 365.096 120.896 C 370.320 126.123,374.789 130.400,375.028 130.400 C 375.266 130.400,377.833 127.988,380.731 125.040 L 386.000 119.681 386.000 117.694 C 386.000 115.231,385.887 115.080,378.406 107.572 C 371.025 100.164,369.984 99.545,366.800 100.676 " stroke="none" fill="#f8547c" fill-rule="evenodd"></path></g></svg>